<?xml version="1.0" encoding="UTF-8"?>
<svg xmlns="http://www.w3.org/2000/svg" width="600" height="840" viewBox="0 0 300 420">
  <defs>
    <style>
      .sil { fill:#9EC6E6; stroke:#3E5E73; stroke-width:4; }
      .detail { fill:none; stroke:#3E5E73; stroke-width:3; opacity:0.23500000000000004; }
      .label { font-family: ui-sans-serif, system-ui, -apple-system, Segoe UI, Roboto, Helvetica, Arial; font-size:18px; fill:#0E2230; opacity:0.85; }
    </style>
  </defs>

  <path class="sil" d="
    M 130.0 40.0
    C 78.0 45.0, 63.0 60.0, 53.0 80.0
    C 43.0 110.0, 43.0 140.0, 58.0 160.0
    C 63.0 190.0, 72.5 177.0, 82.5 185.0
    C 92.5 220.0, 90.0 230.0, 80.0 238.0
    C 75.0 255.0, 90.0 260.0, 122.0 255.0
    C 115.0 310.0, 97.0 330.0, 112.0 365.0
    C 100.0 390.0, 98.2 400.0, 108.2 410.0
    C 140.0 415.0, 140.0 415.0, 150.0 412.0
    C 160.0 415.0, 160.0 415.0, 191.8 410.0
    C 201.8 400.0, 200.0 390.0, 188.0 365.0
    C 210.0 330.0, 185.0 310.0, 178.0 255.0
    C 210.0 260.0, 225.0 255.0, 220.0 238.0
    C 210.0 230.0, 207.5 220.0, 217.5 185.0
    C 227.5 177.0, 237.0 190.0, 242.0 160.0
    C 257.0 140.0, 257.0 110.0, 247.0 80.0
    C 237.0 60.0, 222.0 45.0, 170.0 40.0
    Z" />

  <path class="detail" d="M 105.0 105.0 C 140.0 90.0, 160.0 90.0, 195.0 105.0" />
  <path class="detail" d="M 115.0 185.0 C 140.0 195.0, 160.0 195.0, 185.0 185.0" />

  <text class="label" x="150" y="415" text-anchor="middle">20%</text>
</svg>
