<?xml version="1.0" encoding="UTF-8"?>
<svg xmlns="http://www.w3.org/2000/svg" width="600" height="840" viewBox="0 0 300 420">
  <defs>
    <style>
      .sil { fill:#9EC6E6; stroke:#3E5E73; stroke-width:4; }
      .detail { fill:none; stroke:#3E5E73; stroke-width:3; opacity:0.14500000000000002; }
      .label { font-family: ui-sans-serif, system-ui, -apple-system, Segoe UI, Roboto, Helvetica, Arial; font-size:18px; fill:#0E2230; opacity:0.85; }
    </style>
  </defs>

  <path class="sil" d="
    M 126.0 40.0
    C 64.0 45.0, 49.0 60.0, 39.0 80.0
    C 29.0 110.0, 29.0 140.0, 44.0 160.0
    C 49.0 190.0, 47.5 191.0, 57.5 199.0
    C 67.5 220.0, 70.0 230.0, 60.0 238.0
    C 55.0 255.0, 90.0 260.0, 122.0 255.0
    C 115.0 310.0, 91.0 330.0, 112.0 365.0
    C 100.0 390.0, 95.0 400.0, 105.0 410.0
    C 140.0 415.0, 140.0 415.0, 150.0 412.0
    C 160.0 415.0, 160.0 415.0, 195.1 410.0
    C 205.1 400.0, 200.0 390.0, 188.0 365.0
    C 210.0 330.0, 185.0 310.0, 178.0 255.0
    C 210.0 260.0, 245.0 255.0, 240.0 238.0
    C 230.0 230.0, 232.5 220.0, 242.5 199.0
    C 252.5 191.0, 251.0 190.0, 256.0 160.0
    C 271.0 140.0, 271.0 110.0, 261.0 80.0
    C 251.0 60.0, 236.0 45.0, 174.0 40.0
    Z" />

  <path class="detail" d="M 105.0 105.0 C 140.0 90.0, 160.0 90.0, 195.0 105.0" />
  <path class="detail" d="M 115.0 185.0 C 140.0 195.0, 160.0 195.0, 185.0 185.0" />

  <text class="label" x="150" y="415" text-anchor="middle">40%</text>
</svg>
