<?xml version="1.0" encoding="UTF-8"?>
<svg xmlns="http://www.w3.org/2000/svg" width="600" height="840" viewBox="0 0 300 420">
  <defs>
    <style>
      .sil { fill:#9EC6E6; stroke:#3E5E73; stroke-width:4; }
      .detail { fill:none; stroke:#3E5E73; stroke-width:3; opacity:0.10000000000000003; }
      .label { font-family: ui-sans-serif, system-ui, -apple-system, Segoe UI, Roboto, Helvetica, Arial; font-size:18px; fill:#0E2230; opacity:0.85; }
    </style>
  </defs>

  <path class="sil" d="
    M 124.0 40.0
    C 57.0 45.0, 42.0 60.0, 32.0 80.0
    C 22.0 110.0, 22.0 140.0, 37.0 160.0
    C 42.0 190.0, 35.0 198.0, 45.0 206.0
    C 55.0 220.0, 60.0 230.0, 50.0 238.0
    C 45.0 255.0, 90.0 260.0, 122.0 255.0
    C 115.0 310.0, 88.0 330.0, 112.0 365.0
    C 100.0 390.0, 93.3 400.0, 103.3 410.0
    C 140.0 415.0, 140.0 415.0, 150.0 412.0
    C 160.0 415.0, 160.0 415.0, 196.7 410.0
    C 206.7 400.0, 200.0 390.0, 188.0 365.0
    C 210.0 330.0, 185.0 310.0, 178.0 255.0
    C 210.0 260.0, 255.0 255.0, 250.0 238.0
    C 240.0 230.0, 245.0 220.0, 255.0 206.0
    C 265.0 198.0, 258.0 190.0, 263.0 160.0
    C 278.0 140.0, 278.0 110.0, 268.0 80.0
    C 258.0 60.0, 243.0 45.0, 176.0 40.0
    Z" />

  <path class="detail" d="M 105.0 105.0 C 140.0 90.0, 160.0 90.0, 195.0 105.0" />
  <path class="detail" d="M 115.0 185.0 C 140.0 195.0, 160.0 195.0, 185.0 185.0" />

  <text class="label" x="150" y="415" text-anchor="middle">50%</text>
</svg>
