<?xml version="1.0" encoding="UTF-8"?>
<svg xmlns="http://www.w3.org/2000/svg" width="600" height="840" viewBox="0 0 300 420">
  <defs>
    <style>
      .sil { fill:#9EC6E6; stroke:#3E5E73; stroke-width:4; }
      .detail { fill:none; stroke:#3E5E73; stroke-width:3; opacity:0.28; }
      .label { font-family: ui-sans-serif, system-ui, -apple-system, Segoe UI, Roboto, Helvetica, Arial; font-size:18px; fill:#0E2230; opacity:0.85; }
    </style>
  </defs>

  <path class="sil" d="
    M 132.0 40.0
    C 85.0 45.0, 70.0 60.0, 60.0 80.0
    C 50.0 110.0, 50.0 140.0, 65.0 160.0
    C 70.0 190.0, 85.0 170.0, 95.0 178.0
    C 105.0 220.0, 100.0 230.0, 90.0 238.0
    C 85.0 255.0, 90.0 260.0, 122.0 255.0
    C 115.0 310.0, 100.0 330.0, 112.0 365.0
    C 100.0 390.0, 99.9 400.0, 109.9 410.0
    C 140.0 415.0, 140.0 415.0, 150.0 412.0
    C 160.0 415.0, 160.0 415.0, 190.1 410.0
    C 200.1 400.0, 200.0 390.0, 188.0 365.0
    C 210.0 330.0, 185.0 310.0, 178.0 255.0
    C 210.0 260.0, 215.0 255.0, 210.0 238.0
    C 200.0 230.0, 195.0 220.0, 205.0 178.0
    C 215.0 170.0, 230.0 190.0, 235.0 160.0
    C 250.0 140.0, 250.0 110.0, 240.0 80.0
    C 230.0 60.0, 215.0 45.0, 168.0 40.0
    Z" />

  <path class="detail" d="M 105.0 105.0 C 140.0 90.0, 160.0 90.0, 195.0 105.0" />
  <path class="detail" d="M 115.0 185.0 C 140.0 195.0, 160.0 195.0, 185.0 185.0" />

  <text class="label" x="150" y="415" text-anchor="middle">10%</text>
</svg>
