<?xml version="1.0" encoding="UTF-8"?>
<svg xmlns="http://www.w3.org/2000/svg" width="600" height="840" viewBox="0 0 300 420">
  <defs>
    <style>
      .sil { fill:#9EC6E6; stroke:#3E5E73; stroke-width:4; }
      .detail { fill:none; stroke:#3E5E73; stroke-width:3; opacity:0.19000000000000003; }
      .label { font-family: ui-sans-serif, system-ui, -apple-system, Segoe UI, Roboto, Helvetica, Arial; font-size:18px; fill:#0E2230; opacity:0.85; }
    </style>
  </defs>

  <path class="sil" d="
    M 128.0 40.0
    C 71.0 45.0, 56.0 60.0, 46.0 80.0
    C 36.0 110.0, 36.0 140.0, 51.0 160.0
    C 56.0 190.0, 60.0 184.0, 70.0 192.0
    C 80.0 220.0, 80.0 230.0, 70.0 238.0
    C 65.0 255.0, 90.0 260.0, 122.0 255.0
    C 115.0 310.0, 94.0 330.0, 112.0 365.0
    C 100.0 390.0, 96.6 400.0, 106.6 410.0
    C 140.0 415.0, 140.0 415.0, 150.0 412.0
    C 160.0 415.0, 160.0 415.0, 193.4 410.0
    C 203.4 400.0, 200.0 390.0, 188.0 365.0
    C 210.0 330.0, 185.0 310.0, 178.0 255.0
    C 210.0 260.0, 235.0 255.0, 230.0 238.0
    C 220.0 230.0, 220.0 220.0, 230.0 192.0
    C 240.0 184.0, 244.0 190.0, 249.0 160.0
    C 264.0 140.0, 264.0 110.0, 254.0 80.0
    C 244.0 60.0, 229.0 45.0, 172.0 40.0
    Z" />

  <path class="detail" d="M 105.0 105.0 C 140.0 90.0, 160.0 90.0, 195.0 105.0" />
  <path class="detail" d="M 115.0 185.0 C 140.0 195.0, 160.0 195.0, 185.0 185.0" />

  <text class="label" x="150" y="415" text-anchor="middle">30%</text>
</svg>
