<svg xmlns="http://www.w3.org/2000/svg" width="800" height="450" viewBox="0 0 800 450">
  <defs>
    <linearGradient id="bg" x1="0" y1="0" x2="1" y2="1">
      <stop offset="0" stop-color="#0b0f14"/>
      <stop offset="1" stop-color="#141a22"/>
    </linearGradient>
    <linearGradient id="glow" x1="0" y1="0" x2="1" y2="0">
      <stop offset="0" stop-color="#f5b942" stop-opacity="0.15"/>
      <stop offset="1" stop-color="#f5b942" stop-opacity="0.05"/>
    </linearGradient>
  </defs>

  <rect width="800" height="450" rx="28" fill="url(#bg)"/>
  <rect x="24" y="24" width="752" height="402" rx="22" fill="url(#glow)"/>

  <g opacity="0.85">
    <rect x="70" y="130" width="660" height="18" rx="9" fill="#2b3340"/>
    <rect x="70" y="165" width="520" height="14" rx="7" fill="#232b36"/>
    <rect x="70" y="195" width="460" height="14" rx="7" fill="#232b36"/>
  </g>

  <g transform="translate(70,260)" opacity="0.9">
    <rect x="0" y="0" width="180" height="110" rx="16" fill="#1a212c" stroke="#2b3340"/>
    <rect x="210" y="0" width="180" height="110" rx="16" fill="#1a212c" stroke="#2b3340"/>
    <rect x="420" y="0" width="180" height="110" rx="16" fill="#1a212c" stroke="#2b3340"/>

    <text x="16" y="36" fill="#cbd5e1" font-family="system-ui, -apple-system, Segoe UI, Roboto" font-size="16">Ejercicio</text>
    <text x="226" y="36" fill="#cbd5e1" font-family="system-ui, -apple-system, Segoe UI, Roboto" font-size="16">Técnica</text>
    <text x="436" y="36" fill="#cbd5e1" font-family="system-ui, -apple-system, Segoe UI, Roboto" font-size="16">Tips</text>
  </g>

  <text x="70" y="95" fill="#f5b942" font-family="system-ui, -apple-system, Segoe UI, Roboto" font-size="20" font-weight="600">FitSculpt</text>
  <text x="70" y="115" fill="#94a3b8" font-family="system-ui, -apple-system, Segoe UI, Roboto" font-size="14">Placeholder de biblioteca</text>
</svg>
